<?xml version="1.0" standalone="no"?>
<!DOCTYPE svg PUBLIC "-//W3C//DTD SVG 20010904//EN"
 "http://www.w3.org/TR/2001/REC-SVG-20010904/DTD/svg10.dtd">
<svg version="1.0" xmlns="http://www.w3.org/2000/svg"
 width="640.000000pt" height="640.000000pt" viewBox="0 0 640.000000 640.000000"
 preserveAspectRatio="xMidYMid meet">

<g transform="translate(0.000000,640.000000) scale(0.100000,-0.100000)"
fill="#000000" stroke="none">
<path d="M0 5896 l0 -503 198 -6 c108 -4 449 -8 757 -9 l560 -3 -3 28 c-3 27
-2 28 32 21 44 -8 46 3 5 42 -17 16 -67 74 -112 129 -44 55 -107 132 -139 171
-32 39 -58 76 -58 82 0 6 -6 15 -14 19 -24 14 -106 116 -100 125 3 4 13 8 22
7 16 0 15 -1 0 -7 -17 -7 -16 -8 2 -20 14 -8 20 -9 20 -1 0 6 7 9 15 5 11 -4
15 1 15 19 0 18 -4 23 -15 19 -8 -4 -15 -1 -15 5 0 6 -19 21 -42 33 -31 16
-38 23 -25 26 9 2 17 9 17 17 0 7 7 16 16 19 23 9 -3 38 -27 31 -18 -6 -57 11
-71 30 -5 6 -8 5 -8 -3 0 -7 -10 -1 -23 13 -12 14 -32 27 -45 28 -16 1 -47 30
-100 94 l-77 93 -392 0 -393 0 0 -504z m995 276 c-3 -3 5 -16 17 -29 12 -13
17 -23 12 -23 -5 0 -20 16 -33 35 -13 19 -27 35 -32 35 -5 0 -9 5 -9 10 0 6
11 3 25 -6 14 -9 23 -19 20 -22z m105 -139 c0 -19 -6 -16 -24 12 -17 25 -16
25 4 13 11 -7 20 -18 20 -25z m-467 -550 c-7 -2 -21 -2 -30 0 -10 3 -4 5 12 5
17 0 24 -2 18 -5z m77 -3 c12 -8 11 -10 -7 -10 -13 0 -23 5 -23 10 0 13 11 13
30 0z m165 -11 c23 -7 16 -8 -33 -6 -34 2 -67 8 -73 14 -13 13 53 8 106 -8z"/>
<path d="M2420 6384 c0 -8 5 -14 10 -14 6 0 16 -11 22 -25 6 -14 17 -25 24
-25 7 0 15 -8 18 -17 6 -19 66 -58 66 -43 0 5 17 10 37 12 27 2 41 9 49 25 6
13 19 32 28 42 14 15 15 24 6 40 -10 20 -19 21 -135 20 -101 0 -125 -3 -125
-15z"/>
<path d="M2173 6254 c-18 -24 -35 -31 -75 -33 -22 -1 -24 -27 -2 -35 9 -3 14
-13 11 -20 -4 -9 1 -16 11 -18 9 -2 -13 -13 -51 -26 -78 -26 -170 -29 -243 -8
-27 8 -67 13 -89 13 l-40 -2 3 -70 c6 -143 5 -179 -7 -183 -6 -2 -11 -10 -11
-18 0 -8 -4 -14 -10 -14 -5 0 -10 -11 -10 -25 0 -14 -4 -25 -10 -25 -16 0 -36
-53 -32 -87 3 -29 7 -33 33 -33 16 0 29 4 29 8 0 5 18 15 40 22 35 12 39 16
33 38 -4 19 -3 23 7 17 9 -5 11 -4 6 3 -4 6 -1 39 6 73 9 44 18 63 30 67 10 2
18 8 18 12 0 15 31 20 52 9 15 -8 17 -14 8 -22 -8 -9 -14 -8 -21 6 -9 15 -12
15 -25 3 -16 -17 -19 -46 -4 -46 6 0 10 -13 10 -30 0 -35 25 -42 35 -10 3 11
10 20 14 20 4 0 7 12 6 26 0 22 7 28 45 41 25 8 50 20 55 26 18 22 65 48 75
42 6 -3 10 -2 10 2 0 19 39 33 66 23 22 -9 30 -7 45 7 28 28 43 38 57 38 6 0
11 5 10 10 -2 6 -6 9 -10 8 -5 -2 -8 1 -8 6 0 6 11 9 25 8 14 -1 25 -7 24 -12
-3 -23 -12 -35 -25 -35 -8 0 -14 -5 -14 -11 0 -13 51 -3 60 11 10 16 50 -1 50
-21 0 -10 9 -23 20 -29 16 -9 18 -8 14 5 -4 8 -10 15 -14 15 -5 0 -6 9 -3 20
3 11 10 20 15 20 5 0 7 -4 4 -9 -3 -4 6 -13 19 -19 14 -7 25 -16 25 -22 0 -5
5 -10 11 -10 5 0 7 5 4 10 -6 10 12 14 55 10 22 -2 42 -18 74 -60 24 -34 112
-97 135 -98 29 -1 41 -17 41 -54 0 -16 5 -28 11 -28 5 0 8 -4 4 -9 -10 -18 13
-21 41 -6 45 23 73 19 80 -12 4 -14 2 -33 -3 -43 -14 -21 9 -55 31 -47 9 4 18
2 21 -3 10 -16 73 -42 102 -42 54 0 168 -32 201 -56 l32 -24 0 23 0 24 25 -27
c17 -18 25 -39 25 -63 0 -33 2 -35 34 -35 18 0 61 -3 95 -6 59 -7 61 -6 61 16
0 22 2 23 61 16 34 -3 104 -6 156 -6 60 0 92 -4 88 -10 -4 -6 13 -10 44 -10
48 0 51 2 51 25 0 23 -4 25 -40 25 -38 0 -40 2 -40 30 0 28 2 30 40 30 29 0
40 -4 40 -15 0 -11 11 -15 40 -15 40 0 40 0 40 -39 0 -25 5 -41 15 -45 12 -4
15 4 15 39 l0 45 65 0 c51 0 65 3 65 15 0 8 4 15 10 15 5 0 7 -7 4 -15 -4 -10
0 -15 11 -15 11 0 15 5 12 14 -3 8 1 20 9 26 8 7 14 21 14 31 0 11 7 19 15 19
22 0 59 36 46 44 -6 4 -20 2 -32 -5 -13 -6 -19 -7 -15 -1 3 6 1 14 -4 17 -15
9 -62 -3 -55 -15 3 -5 1 -11 -5 -15 -5 -3 -10 1 -10 10 0 14 -7 13 -45 -9 -34
-20 -61 -27 -115 -30 -39 -2 -73 1 -76 5 -3 5 -23 9 -45 9 -21 0 -39 4 -39 8
0 5 -10 8 -22 8 -17 -1 -24 5 -26 22 -2 12 1 22 7 22 6 0 11 8 11 18 0 14 -2
14 -9 3 -8 -12 -12 -12 -25 -2 -11 9 -16 10 -16 2 0 -6 -17 -11 -40 -11 -34 0
-40 -3 -40 -21 0 -20 -4 -21 -40 -15 -31 5 -40 3 -40 -8 0 -8 9 -18 20 -21 11
-3 20 -11 20 -16 0 -5 9 -9 20 -9 27 0 26 -2 -16 -44 -37 -37 -62 -44 -82 -24
-7 7 -56 17 -109 22 -86 10 -98 13 -100 31 -2 11 0 15 3 9 3 -7 14 -9 25 -7
14 4 17 8 9 13 -9 6 -4 13 15 26 20 13 29 14 34 5 9 -14 25 -9 103 27 50 23
58 31 58 55 0 16 5 27 14 27 7 0 25 9 40 21 14 11 26 16 26 10 0 -6 18 -11 40
-11 22 0 40 5 40 10 0 6 18 10 40 10 22 0 40 -4 40 -10 0 -5 7 -10 15 -10 8 0
15 -4 15 -10 0 -5 9 -14 20 -20 17 -9 22 -7 30 12 5 13 9 17 9 11 1 -7 11 -13
24 -13 16 0 26 -9 34 -30 13 -35 19 -36 51 -12 l23 18 -26 28 c-19 20 -29 25
-34 17 -10 -16 -41 -3 -35 14 8 19 -46 45 -91 45 -20 0 -34 4 -30 9 3 6 15 8
26 6 13 -3 19 0 16 8 -2 7 -20 11 -41 11 -20 -1 -36 3 -36 8 0 5 -5 6 -10 3
-6 -4 -19 4 -30 17 l-20 23 -30 -32 c-16 -18 -35 -33 -41 -33 -5 0 -22 14 -36
30 -27 33 -43 38 -43 15 0 -23 -14 -18 -43 14 -37 42 -67 33 -67 -20 0 -22 -4
-39 -10 -39 -5 0 -10 -18 -10 -40 0 -29 -4 -40 -15 -40 -9 0 -15 -9 -15 -21 0
-18 -2 -19 -15 -9 -8 7 -15 16 -15 21 0 5 7 9 15 9 8 0 15 7 15 15 0 11 -11
15 -39 15 -22 0 -42 6 -45 13 -3 6 -2 -1 1 -17 l6 -29 -79 8 c-43 4 -81 10
-84 14 -3 4 -16 7 -30 8 -58 4 -76 9 -87 28 -8 14 -8 22 0 27 14 9 -7 34 -44
54 -16 8 -26 20 -23 27 5 13 -34 37 -59 37 -7 0 -25 7 -42 16 -31 17 -85 33
-119 37 -24 2 -45 55 -26 67 8 5 9 13 2 26 -6 11 -13 27 -16 37 -7 22 -23 22
-31 -2 -5 -16 -10 -17 -48 -8 -23 5 -54 15 -68 23 -16 8 -40 11 -62 7 -20 -3
-61 -2 -91 1 -52 7 -56 9 -56 34 0 20 -3 23 -12 14 -17 -17 -23 -15 -36 13 -9
20 -19 25 -46 25 -19 0 -41 7 -50 15 -23 23 -62 18 -83 -11z m187 -195 c0 -5
-7 -9 -15 -9 -15 0 -20 12 -9 23 8 8 24 -1 24 -14z m1260 -223 c0 -3 -4 -8
-10 -11 -5 -3 -10 -1 -10 4 0 6 5 11 10 11 6 0 10 -2 10 -4z m-1943 -68 c-3
-8 -6 -5 -6 6 -1 11 2 17 5 13 3 -3 4 -12 1 -19z m23 -37 c0 -6 -4 -13 -10
-16 -5 -3 -10 1 -10 9 0 9 5 16 10 16 6 0 10 -4 10 -9z m1690 -201 c12 -8 11
-10 -7 -10 -13 0 -23 5 -23 10 0 13 11 13 30 0z"/>
<path d="M2410 6210 c0 -5 4 -10 9 -10 6 0 13 5 16 10 3 6 -1 10 -9 10 -9 0
-16 -4 -16 -10z"/>
<path d="M2721 6194 c0 -11 3 -14 6 -6 3 7 2 16 -1 19 -3 4 -6 -2 -5 -13z"/>
<path d="M2770 6175 c7 -8 16 -15 21 -15 5 0 9 7 9 15 0 9 -9 15 -21 15 -18 0
-19 -2 -9 -15z"/>
<path d="M3515 5994 c9 -9 19 -13 23 -10 3 4 0 11 -8 16 -24 15 -33 11 -15 -6z"/>
<path d="M3440 5990 c0 -5 7 -10 15 -10 8 0 15 5 15 10 0 6 -7 10 -15 10 -8 0
-15 -4 -15 -10z"/>
<path d="M3580 5951 c0 -11 4 -22 9 -25 11 -7 23 22 15 35 -9 16 -24 10 -24
-10z"/>
<path d="M3697 5944 c-13 -13 -7 -24 14 -24 11 0 19 5 17 12 -5 14 -22 21 -31
12z"/>
<path d="M3183 5844 c-3 -8 -1 -20 6 -27 8 -8 11 -7 11 6 0 13 9 17 38 17 27
0 33 3 22 10 -24 15 -70 12 -77 -6z"/>
<path d="M2196 5802 c-3 -6 -16 -8 -28 -4 -17 4 -20 2 -15 -11 5 -12 1 -17
-13 -17 -14 0 -20 -7 -20 -21 0 -16 -5 -20 -20 -16 -13 3 -20 0 -20 -9 0 -8
-4 -14 -10 -14 -15 0 -60 23 -60 31 0 11 -28 19 -45 13 -23 -9 -18 -34 8 -34
16 0 18 -3 8 -9 -11 -7 -9 -11 9 -21 16 -9 19 -15 11 -23 -16 -16 -14 -37 4
-31 10 4 15 0 15 -15 0 -13 6 -21 18 -21 10 0 13 -3 6 -8 -6 -4 -10 -17 -9
-30 2 -31 -6 -34 -34 -13 -23 18 -25 18 -52 -8 -30 -29 -49 -81 -29 -81 6 0 9
-4 5 -9 -3 -6 3 -15 12 -20 17 -10 17 -12 1 -25 -41 -31 -21 -36 152 -36 146
0 169 2 164 15 -4 8 -11 15 -16 15 -6 0 -5 6 2 15 10 12 10 15 -3 15 -9 0 -19
-5 -23 -11 -11 -18 -23 4 -17 34 5 25 23 39 23 18 0 -13 39 -21 46 -9 10 15
24 -12 24 -45 0 -16 -4 -26 -10 -22 -5 3 -10 -1 -10 -9 0 -13 12 -16 60 -16
46 0 60 3 60 14 0 8 -4 17 -8 20 -5 3 -7 29 -6 58 2 33 -1 55 -9 60 -9 6 -9 8
1 8 6 0 12 8 12 18 0 10 5 23 12 30 9 9 8 12 -7 12 -11 0 -16 4 -10 8 15 11
35 49 28 55 -7 7 -33 -18 -33 -31 0 -10 -23 -22 -40 -22 -5 0 -12 9 -15 20 -3
11 -15 20 -26 20 -10 0 -19 4 -19 9 0 15 -41 24 -53 12 -6 -6 -17 -11 -25 -11
-10 0 -10 3 2 16 9 8 14 19 11 24 -3 5 1 11 7 14 10 5 10 7 1 12 -7 3 -9 12
-6 20 4 10 -2 17 -16 21 -11 3 -21 10 -21 15 0 6 6 8 14 5 8 -3 17 1 20 10 7
18 1 29 -8 15z m21 -225 c-12 -18 -25 -33 -29 -35 -5 -2 -8 -10 -8 -18 0 -8
-7 -14 -15 -14 -21 0 -19 11 9 41 13 14 29 35 35 47 7 13 16 20 21 17 6 -3 0
-20 -13 -38z m-163 -86 c7 -11 -52 -76 -60 -68 -4 3 1 13 9 22 9 8 19 24 22
35 7 21 20 26 29 11z"/>
<path d="M1790 5765 c-11 -14 -10 -17 8 -22 12 -3 22 -11 22 -18 0 -19 27 -26
34 -9 3 8 1 14 -4 14 -5 0 -10 10 -12 22 -4 28 -30 35 -48 13z"/>
<path d="M1625 5610 c-3 -5 -1 -10 4 -10 6 0 11 5 11 10 0 6 -2 10 -4 10 -3 0
-8 -4 -11 -10z"/>
<path d="M2413 5605 c-3 -9 -3 -19 1 -22 3 -4 6 -1 6 5 0 7 7 12 16 12 8 0 12
5 9 10 -9 15 -25 12 -32 -5z"/>
<path d="M3264 5499 c-18 -20 -18 -22 -1 -34 23 -17 21 -25 -5 -26 -52 -2 28
-17 107 -20 73 -3 69 -4 -45 -9 l-125 -6 163 -2 c89 -1 162 2 162 7 0 9 -91
20 -184 22 -34 1 -53 3 -43 6 12 3 17 15 17 44 0 45 -16 51 -46 18z"/>
<path d="M4907 5514 c-3 -4 -2 -14 3 -24 7 -12 4 -23 -8 -36 -19 -19 -22 -27
-22 -44 0 -5 -6 -10 -14 -10 -7 0 -16 -9 -19 -20 -5 -19 0 -20 134 -20 118 0
139 2 139 15 0 12 7 14 28 9 15 -4 29 -11 30 -16 5 -11 143 -10 161 1 19 12
-4 24 -30 16 -18 -6 -20 -4 -14 14 5 17 2 21 -15 21 -11 0 -23 -7 -26 -15 -9
-22 -24 -18 -24 5 0 11 5 20 10 20 6 0 10 5 10 10 0 6 -11 8 -27 4 -25 -7 -27
-6 -14 9 9 12 10 17 2 17 -8 0 -10 8 -6 22 6 16 4 20 -8 15 -8 -3 -19 -1 -25
5 -8 8 -18 7 -34 -4 -21 -14 -26 -14 -45 -1 -29 20 -57 10 -48 -16 4 -14 0
-23 -15 -31 -11 -6 -20 -16 -20 -23 0 -7 -7 -20 -14 -30 -12 -16 -17 -16 -35
-5 -12 7 -21 18 -21 25 0 7 -4 13 -10 13 -5 0 -10 -5 -10 -12 0 -6 -3 -8 -7
-5 -3 4 2 16 11 26 14 15 15 24 7 39 -6 11 -7 22 -4 26 3 3 2 6 -4 6 -5 0 -13
-3 -16 -6z m263 -88 c0 -3 -4 -8 -10 -11 -5 -3 -10 -1 -10 4 0 6 5 11 10 11 6
0 10 -2 10 -4z"/>
<path d="M4417 5463 c-4 -3 -7 -11 -7 -17 0 -6 5 -5 12 2 6 6 9 14 7 17 -3 3
-9 2 -12 -2z"/>
<path d="M4433 5444 c-10 -22 -1 -35 11 -15 4 5 22 8 42 7 39 -4 33 12 -6 16
-14 2 -27 6 -30 10 -3 3 -10 -4 -17 -18z"/>
<path d="M3120 5450 c0 -5 5 -10 11 -10 5 0 7 5 4 10 -3 6 -8 10 -11 10 -2 0
-4 -4 -4 -10z"/>
<path d="M3623 5443 c15 -2 37 -2 50 0 12 2 0 4 -28 4 -27 0 -38 -2 -22 -4z"/>
<path d="M1649 5429 c-12 -8 -12 -10 1 -19 10 -6 11 -10 3 -10 -27 0 -11 -26
17 -28 17 -1 30 2 30 8 0 5 -5 10 -11 10 -6 0 -9 6 -6 13 7 18 -17 37 -34 26z"/>
<path d="M4080 5428 c0 -4 11 -8 25 -8 14 0 25 4 25 10 0 5 -11 9 -25 8 -14
-1 -25 -6 -25 -10z"/>
<path d="M4320 5430 c0 -5 7 -10 15 -10 8 0 15 5 15 10 0 6 -7 10 -15 10 -8 0
-15 -4 -15 -10z"/>
<path d="M4615 5430 c-3 -5 -1 -10 4 -10 6 0 11 5 11 10 0 6 -2 10 -4 10 -3 0
-8 -4 -11 -10z"/>
<path d="M4663 5433 c-15 -5 -17 -23 -4 -23 5 0 11 7 15 15 3 8 4 15 3 14 -1
0 -8 -3 -14 -6z"/>
<path d="M1782 5405 c-16 -35 -16 -35 18 -35 17 0 30 5 30 10 0 6 -7 10 -16
10 -13 0 -14 3 -5 13 10 13 6 27 -9 27 -4 0 -12 -11 -18 -25z"/>
<path d="M3123 5423 c9 -2 25 -2 35 0 9 3 1 5 -18 5 -19 0 -27 -2 -17 -5z"/>
<path d="M3600 5417 c0 -8 381 1 389 9 3 2 -84 3 -192 2 -108 -1 -197 -6 -197
-11z"/>
<path d="M4183 5423 c15 -2 37 -2 50 0 12 2 0 4 -28 4 -27 0 -38 -2 -22 -4z"/>
<path d="M4456 5415 c-3 -8 2 -16 11 -19 12 -5 13 -9 3 -21 -11 -13 -7 -15 21
-14 19 0 29 3 23 5 -7 3 -10 13 -8 22 6 22 -42 47 -50 27z"/>
<path d="M5673 5414 c-3 -8 -12 -13 -20 -9 -11 3 -13 1 -9 -10 7 -18 -5 -20
-22 -3 -9 9 -12 8 -12 -5 0 -10 -5 -14 -14 -11 -8 3 -12 12 -9 20 6 15 -2 17
-31 5 -17 -7 -17 -8 -2 -24 21 -21 118 -25 114 -4 -2 7 8 12 25 12 29 -1 35
13 15 33 -16 16 -27 15 -35 -4z"/>
<path d="M2447 5401 c-3 -11 -2 -22 1 -25 11 -12 40 -6 46 10 3 8 2 12 -4 9
-6 -3 -10 1 -10 9 0 23 -27 20 -33 -3z"/>
<path d="M3023 5403 c9 -2 23 -2 30 0 6 3 -1 5 -18 5 -16 0 -22 -2 -12 -5z"/>
<path d="M3138 5403 c12 -2 30 -2 40 0 9 3 -1 5 -23 4 -22 0 -30 -2 -17 -4z"/>
<path d="M3846 5399 c-105 -4 -161 -11 -166 -19 -5 -9 -29 -10 -86 -4 -82 8
-512 9 -520 2 -5 -6 708 -18 1040 -18 137 0 247 3 244 6 -3 3 -139 5 -302 6
-169 0 -296 4 -296 9 0 5 87 10 198 10 133 1 182 4 152 10 -51 9 -48 9 -264
-2z"/>
<path d="M4335 5400 c-3 -5 3 -10 14 -10 12 0 21 5 21 10 0 6 -6 10 -14 10 -8
0 -18 -4 -21 -10z"/>
<path d="M4198 5393 c23 -2 61 -2 85 0 23 2 4 4 -43 4 -47 0 -66 -2 -42 -4z"/>
<path d="M4625 5380 c-3 -5 1 -13 10 -16 22 -9 29 1 11 15 -10 8 -16 9 -21 1z"/>
<path d="M5465 5381 c-7 -12 31 -25 46 -15 8 4 7 9 -2 15 -18 11 -36 11 -44 0z"/>
<path d="M0 5328 c0 -22 289 -27 2225 -38 3812 -22 4175 -22 4175 -5 0 13 -39
15 -327 15 -181 0 -728 2 -1218 5 -489 3 -1711 10 -2715 15 -1004 5 -1896 13
-1982 16 -135 5 -158 4 -158 -8z"/>
<path d="M3730 4556 c0 -9 50 -12 62 -5 8 6 -1 9 -24 9 -21 0 -38 -2 -38 -4z"/>
<path d="M2832 4460 c-12 -5 -36 -31 -52 -57 -26 -41 -30 -56 -30 -120 0 -69
8 -96 38 -135 8 -9 14 -22 16 -30 1 -7 16 -33 34 -57 32 -44 34 -67 11 -97
-16 -20 17 -36 73 -36 79 -1 120 11 155 45 l33 31 -27 28 c-24 26 -26 31 -15
61 14 41 17 180 3 231 -6 26 -6 46 0 58 5 10 6 18 1 18 -5 0 -22 11 -38 25
-47 41 -144 58 -202 35z m148 -138 l35 -5 -35 -9 c-19 -5 -55 -13 -80 -17 -25
-4 -51 -11 -59 -16 -11 -6 -13 -4 -8 9 4 10 7 21 7 26 0 14 82 21 140 12z
m-26 -94 c5 -21 3 -28 -9 -28 -11 0 -15 11 -15 37 0 41 13 35 24 -9z m81 32
c-3 -5 -1 -10 5 -10 8 0 8 -6 0 -20 -12 -23 -31 -25 -63 -8 -21 11 -20 12 18
29 49 22 48 21 40 9z m-121 -44 c-6 -17 -43 -38 -54 -31 -6 3 -14 14 -19 24
-9 16 -5 18 34 19 30 0 42 -4 39 -12z"/>
<path d="M3957 4447 c-12 -5 -34 -7 -49 -4 -19 2 -28 -1 -28 -10 0 -7 -10 -17
-22 -22 -40 -16 -58 -47 -58 -100 l0 -48 -62 -2 c-34 -1 -64 -4 -66 -6 -3 -2
6 -35 19 -72 27 -76 48 -88 122 -73 38 7 39 8 12 10 -22 2 -25 4 -10 7 11 3
23 10 27 16 4 7 11 2 17 -13 5 -14 17 -32 28 -41 55 -48 67 -93 38 -148 -14
-27 -13 -29 8 -36 12 -4 44 -9 71 -11 38 -2 56 2 85 22 24 16 44 22 56 18 10
-4 16 -3 13 2 -36 76 -41 95 -41 149 1 33 6 61 12 63 6 2 9 7 7 11 -3 4 -1 24
4 44 4 21 4 39 -1 43 -5 3 -6 23 -3 45 7 43 -2 69 -44 126 -19 25 -31 32 -68
35 -24 2 -55 -1 -67 -5z m49 -186 c5 -5 18 -11 29 -14 14 -4 11 -5 -10 -6 -16
0 -47 -3 -67 -5 -47 -6 -48 0 -5 18 40 18 41 18 53 7z m69 -80 c-16 -14 -55
-23 -55 -12 0 8 16 14 55 20 5 0 5 -2 0 -8z m-71 -28 c19 -23 19 -23 -6 -23
-22 0 -25 4 -20 25 2 14 5 25 6 23 1 -2 10 -13 20 -25z m31 -73 c-3 -5 -14
-10 -23 -10 -15 0 -15 2 -2 10 20 13 33 13 25 0z m29 -50 c-5 -5 -25 -12 -44
-15 -32 -5 -33 -5 -10 6 14 6 32 15 40 19 18 9 27 3 14 -10z"/>
<path d="M2425 4367 c-11 -7 -22 -14 -25 -17 -8 -8 -75 -30 -93 -30 -9 0 -17
-7 -17 -15 0 -8 -6 -15 -13 -15 -8 0 -24 -11 -37 -25 -20 -21 -22 -29 -12 -49
6 -14 7 -37 2 -59 -12 -57 45 -206 80 -208 8 -1 -3 -7 -24 -13 -25 -8 -35 -15
-28 -20 7 -4 12 -4 12 -1 0 4 11 -7 25 -23 14 -17 25 -37 25 -46 0 -8 14 -22
30 -31 19 -10 30 -23 30 -36 0 -17 5 -20 28 -18 20 3 43 -8 79 -34 28 -20 60
-37 70 -37 31 0 52 32 59 86 4 27 11 55 17 62 8 10 5 11 -16 3 -21 -8 -25 -7
-20 4 7 20 -11 19 -27 0 -9 -11 -16 -12 -25 -5 -9 8 -14 7 -17 -1 -2 -7 -9 -9
-15 -6 -12 7 3 83 24 122 6 11 22 41 34 68 13 26 27 47 31 47 3 0 9 18 13 41
4 22 13 43 19 45 7 3 13 10 13 17 0 7 4 20 8 30 7 17 6 18 -13 6 -19 -12 -25
-10 -52 16 -17 16 -33 40 -36 52 -4 13 -16 31 -28 41 -11 10 -26 27 -32 37
-13 24 -42 29 -69 12z m-161 -122 c-4 -8 -13 -15 -21 -15 -13 0 -13 3 -3 15 7
8 16 15 21 15 5 0 6 -7 3 -15z m196 -135 c0 -18 -5 -30 -13 -30 -9 0 -12 10
-9 30 2 17 8 30 13 30 5 0 9 -13 9 -30z m-55 -10 c18 -1 17 -2 -5 -15 -32 -18
-56 -19 -63 -1 -8 19 4 28 28 22 11 -3 29 -6 40 -6z m132 -10 c-1 -13 -6 -19
-15 -15 -7 3 -16 5 -18 5 -12 0 -1 19 14 23 9 3 18 5 19 6 1 0 1 -8 0 -19z
m-233 -71 c-6 -11 -24 -2 -24 11 0 5 7 7 15 4 8 -4 12 -10 9 -15z m153 -5 c-3
-3 -12 -4 -19 -1 -8 3 -5 6 6 6 11 1 17 -2 13 -5z m3 -54 c0 -5 -12 -10 -27
-10 -22 0 -25 2 -13 10 20 13 40 13 40 0z"/>
<path d="M3280 4153 c0 -13 6 -23 14 -23 7 0 20 -8 27 -17 13 -15 12 -16 -8
-11 -24 6 -30 -6 -15 -30 7 -10 13 -8 30 6 l22 19 -35 39 c-31 35 -34 37 -35
17z"/>
<path d="M3234 4012 c3 -3 -2 -10 -11 -17 -21 -16 -11 -31 57 -89 61 -52 79
-79 79 -116 1 -30 -6 -40 -41 -62 -23 -15 -27 -16 -32 -2 -3 9 -6 29 -6 44 0
16 -5 32 -11 36 -13 8 -31 -16 -24 -33 2 -7 0 -13 -5 -13 -6 0 -10 -7 -10 -15
0 -8 -4 -15 -8 -15 -5 0 -14 -18 -21 -40 -15 -50 -27 -57 -55 -31 -30 28 -70
18 -63 -15 2 -15 -3 -33 -15 -46 -23 -27 -17 -32 54 -47 32 -7 60 -17 64 -22
3 -6 -7 -24 -22 -41 -27 -29 -28 -31 -7 -25 13 3 26 1 29 -4 3 -5 9 -7 13 -4
5 2 11 -17 14 -43 4 -26 11 -69 17 -97 6 -27 13 -61 16 -75 7 -31 -43 -102
-87 -124 -27 -13 -36 -13 -72 -1 -23 7 -75 15 -116 17 -46 1 -75 7 -78 15 -4
9 -9 9 -23 1 -14 -9 -30 -9 -67 1 -26 7 -65 15 -85 18 -32 4 -38 9 -38 30 0
23 -24 30 -26 7 0 -5 -4 -28 -8 -51 -6 -35 -12 -43 -29 -43 -35 0 -44 12 -49
67 -4 37 -1 56 8 64 8 6 11 15 8 21 -3 5 -12 4 -20 -3 -8 -7 -14 -7 -14 -1 0
5 6 15 14 21 8 7 18 31 21 54 4 23 11 47 15 52 14 19 19 74 10 102 -5 15 -11
61 -14 102 -5 76 -15 106 -18 55 0 -16 0 -36 0 -44 5 -51 -34 -100 -80 -100
-30 0 -78 -41 -78 -65 0 -7 -11 -15 -24 -17 -34 -7 -186 3 -186 12 0 6 44 30
56 30 3 0 2 -5 -2 -12 -5 -7 -2 -9 8 -5 9 3 20 1 25 -4 5 -5 24 -4 46 3 31 9
39 18 47 48 12 44 4 97 -16 104 -8 3 -24 -4 -35 -15 -11 -11 -24 -17 -29 -14
-4 3 -11 -3 -13 -12 -4 -14 -5 -12 -6 5 -1 21 -4 22 -38 16 -21 -4 -49 -14
-62 -23 -18 -12 -26 -12 -29 -3 -2 6 -15 12 -28 12 -13 0 -24 5 -24 10 0 6 11
10 24 10 25 0 53 25 38 34 -5 3 -12 20 -16 37 -5 27 -8 30 -21 19 -16 -13 -17
-12 -19 34 -1 20 -26 36 -26 17 0 -6 -6 -11 -13 -11 -7 0 -21 -14 -31 -32 -32
-53 -58 -77 -115 -108 -57 -31 -106 -39 -114 -17 -6 17 -66 -80 -73 -120 -10
-56 12 -78 83 -81 32 -1 81 4 108 13 28 8 53 15 56 15 11 0 -10 -88 -31 -129
-26 -51 -25 -53 8 -45 42 11 112 6 136 -9 11 -8 32 -17 46 -20 14 -3 34 -13
45 -22 20 -16 19 -16 -2 -5 -18 8 -28 7 -45 -4 -25 -16 -86 -9 -112 13 -19 16
-78 21 -73 7 2 -6 10 -11 18 -12 38 -3 43 -4 34 -13 -16 -14 -65 -23 -65 -11
0 5 -9 1 -20 -10 -11 -11 -20 -31 -20 -44 0 -14 -4 -36 -10 -50 -12 -33 -50
-408 -50 -498 0 -66 1 -69 23 -66 21 3 22 8 29 153 9 179 25 331 38 354 9 14
9 14 10 -1 0 -9 -5 -39 -10 -65 -6 -27 -14 -135 -18 -241 l-7 -192 42 6 c43 6
169 -12 178 -25 2 -4 -5 -13 -15 -21 -18 -13 -18 -14 -2 -26 14 -10 8 -11 -28
-4 -53 11 -142 13 -164 4 -9 -3 -16 -14 -16 -23 0 -13 13 -16 78 -17 51 0 89
-7 112 -18 28 -13 30 -16 9 -12 -19 4 -26 1 -26 -10 0 -8 6 -13 13 -10 8 3 11
0 8 -9 -4 -11 -25 -13 -97 -9 l-92 6 32 -31 c18 -16 51 -35 75 -42 68 -18 71
-19 67 -24 -7 -6 -90 13 -129 31 -20 8 -44 28 -55 44 -11 17 -22 30 -25 30 -3
0 -18 -19 -34 -42 l-30 -41 20 -35 c19 -32 39 -44 39 -22 0 6 4 10 9 9 5 0 12
4 15 10 4 6 7 -5 8 -24 1 -19 -4 -38 -10 -42 -6 -4 -8 2 -5 15 4 12 3 20 -2
17 -4 -3 -10 -16 -12 -30 -3 -13 -2 -22 2 -20 4 2 12 -6 18 -19 8 -18 7 -41
-5 -93 -15 -66 -18 -78 -42 -136 -6 -15 -11 -35 -11 -43 0 -8 -7 -31 -17 -52
l-16 -37 -12 63 c-8 39 -9 78 -4 105 10 53 10 80 -1 47 -7 -22 -8 -20 -10 15
l-2 40 -10 -35 c-10 -37 -29 -480 -21 -493 2 -4 9 -5 14 -1 6 4 6 10 -1 19 -7
8 -7 30 -1 66 5 30 9 44 10 32 1 -14 8 -23 24 -25 20 -3 22 -8 19 -51 -2 -30
2 -55 12 -68 8 -12 12 -28 9 -35 -3 -8 -1 -14 5 -14 6 0 9 -8 7 -17 -1 -10 3
-25 10 -33 7 -8 20 -36 30 -62 25 -68 36 -74 73 -40 16 15 55 37 86 47 56 19
56 19 130 -3 41 -12 98 -24 128 -28 56 -6 114 9 103 26 -5 8 -12 7 -23 -2 -15
-12 -16 -11 -3 5 8 9 10 21 6 25 -4 4 -10 1 -12 -6 -4 -9 -9 -10 -17 -3 -14
12 -58 3 -50 -11 3 -5 14 -6 25 -3 21 7 27 -10 7 -18 -14 -5 -60 -1 -97 8 -20
5 -22 8 -10 16 12 7 12 9 -1 10 -8 1 -22 2 -30 3 -8 0 -14 6 -13 13 1 6 -16
14 -39 18 l-41 7 5 62 c3 34 13 75 21 92 l16 29 1 -28 c0 -53 16 -72 114 -138
67 -44 90 -51 56 -15 l-23 25 29 6 c16 3 49 10 74 17 25 6 70 14 100 18 l55 7
-48 2 -48 1 7 83 c6 76 25 147 39 147 3 0 31 -12 61 -26 l54 -25 0 -70 c0 -63
-3 -73 -35 -118 -41 -56 -44 -68 -13 -47 29 21 45 20 50 -1 8 -34 -3 -52 -35
-58 -61 -12 -66 -15 -60 -33 17 -46 62 -42 144 13 61 41 159 95 172 95 3 0 -1
-16 -9 -36 -9 -20 -18 -67 -21 -104 -6 -66 -5 -67 23 -77 16 -6 51 -14 78 -17
27 -3 51 -7 52 -9 7 -6 -22 -77 -32 -77 -6 0 -28 -15 -50 -34 l-39 -35 40 10
c22 6 58 14 80 18 22 4 50 13 62 19 12 7 33 12 46 12 15 0 39 15 63 40 22 22
45 40 52 40 7 0 33 20 58 45 29 29 44 39 42 28 -2 -10 -11 -24 -21 -31 -14
-11 -15 -17 -6 -34 10 -18 9 -20 -4 -15 -11 4 -14 2 -10 -9 3 -8 -11 -31 -36
-57 -23 -23 -44 -50 -47 -60 -3 -9 -10 -14 -16 -11 -7 5 -9 1 -5 -9 6 -16 -8
-23 -35 -18 -9 1 -10 -12 -2 -33 3 -8 12 -12 20 -9 20 8 17 -13 -3 -22 -10 -4
-31 -9 -48 -10 -16 -2 -39 -6 -50 -10 -20 -7 -20 -6 -1 9 26 21 13 32 -20 17
-31 -14 -41 -9 -19 9 24 20 18 33 -7 16 -26 -18 -38 -20 -38 -7 0 5 9 13 20
16 24 8 26 21 4 29 -8 3 -13 2 -10 -3 3 -5 -1 -12 -10 -15 -22 -8 -54 -8 -53
2 3 18 -2 32 -12 32 -6 0 -8 -7 -5 -15 4 -10 1 -15 -9 -13 -29 6 -16 -18 19
-35 20 -9 36 -22 36 -27 0 -6 7 -10 15 -10 24 0 17 -20 -7 -21 -22 0 -22 -1 2
-10 14 -6 48 -8 75 -4 28 3 136 9 240 14 105 4 170 8 145 10 l-45 3 63 13 c35
7 73 17 85 23 12 6 56 15 97 22 42 6 118 22 170 36 52 14 107 27 122 31 15 3
25 9 23 14 -6 8 56 23 88 21 9 0 17 4 17 10 0 6 20 8 53 4 33 -3 41 -2 22 3
-27 6 -24 8 29 15 45 6 61 5 67 -6 14 -22 10 -28 -18 -28 -59 0 -1 -15 105
-27 24 -3 63 0 87 7 49 14 67 39 35 47 -20 5 -28 23 -10 23 6 0 10 22 10 49 0
28 5 53 10 56 6 4 7 11 4 17 -5 8 -1 9 12 2 23 -11 143 -7 158 5 6 4 36 14 66
22 30 7 47 15 38 17 -22 4 -24 22 -2 22 8 0 12 5 9 10 -4 7 -13 6 -26 -1 -12
-6 -23 -8 -27 -5 -3 3 -1 6 5 6 16 0 9 43 -9 62 -10 10 -22 18 -27 18 -14 0
-21 26 -10 37 11 11 -37 125 -72 174 -23 32 -28 94 -10 112 6 6 11 28 11 49 0
36 -2 38 -32 38 -36 0 -77 18 -48 21 8 1 21 1 27 0 7 -1 10 5 7 12 -3 9 3 16
15 20 17 4 18 9 10 43 -6 22 -11 44 -11 51 -1 7 -5 10 -10 7 -4 -3 -8 13 -8
36 0 38 1 40 16 26 23 -24 50 -19 74 12 27 34 22 89 -15 162 -14 27 -25 54
-25 59 0 5 -9 31 -20 57 -19 43 -22 45 -34 29 -9 -13 -11 -29 -5 -54 4 -19 6
-37 4 -39 -2 -2 -17 3 -33 12 -57 30 -108 110 -121 190 -7 45 -53 88 -72 69
-19 -19 -13 -59 15 -95 14 -19 26 -43 26 -54 0 -12 -7 -5 -21 20 -11 22 -30
47 -42 57 -21 17 -23 17 -45 -7 -13 -13 -25 -24 -27 -24 -3 0 -11 12 -19 28
-8 15 -28 41 -45 59 -17 18 -33 43 -37 57 -5 22 -31 43 -40 33 -2 -2 15 -29
38 -60 24 -33 42 -69 43 -85 0 -19 5 -26 16 -24 9 1 24 -7 34 -18 18 -19 17
-20 -3 -20 -12 0 -22 5 -22 12 0 6 -3 9 -6 6 -3 -4 -1 -16 6 -27 9 -17 8 -21
-4 -21 -8 0 -19 6 -23 13 -4 7 -21 23 -38 36 -16 12 -38 35 -47 49 -10 16 -18
21 -18 12 0 -8 23 -37 50 -65 36 -36 49 -56 44 -68 -3 -9 -12 -17 -19 -17 -15
0 -55 44 -82 90 -10 18 -26 30 -38 30 -16 0 -17 -2 -5 -10 8 -5 10 -10 4 -10
-6 0 -17 -11 -24 -25 l-13 -24 -28 20 c-16 11 -34 17 -41 13 -8 -5 -9 0 -5 16
3 13 -1 33 -11 49 -27 43 -105 117 -130 124 -28 7 -80 -9 -107 -34 -27 -24
-68 -39 -135 -50 -30 -5 -72 -12 -92 -15 -29 -5 -39 -3 -44 9 -6 17 16 47 34
47 6 0 12 6 15 14 3 7 26 23 51 36 25 12 46 23 46 25 0 2 -5 27 -11 56 -9 41
-8 74 6 163 9 61 19 118 22 126 4 14 58 -90 115 -222 11 -27 24 -48 28 -48 5
0 30 9 57 21 64 28 162 20 205 -16 16 -13 45 -27 65 -31 23 -4 37 -13 40 -25
8 -28 23 -23 23 8 0 37 27 65 51 53 11 -6 27 -7 42 -1 14 5 34 7 45 5 12 -4
29 4 47 20 15 14 31 26 34 26 4 0 37 -16 74 -36 44 -23 73 -46 83 -65 9 -17
19 -27 26 -23 8 5 9 1 5 -10 -4 -9 -1 -29 7 -44 7 -15 11 -32 9 -39 -2 -6 1
-14 7 -18 7 -4 10 0 8 11 -2 13 6 20 34 27 56 13 72 38 76 115 2 37 0 78 -5
91 -6 14 -5 47 0 83 7 41 7 62 -1 66 -6 4 -13 70 -17 157 -5 94 -15 178 -27
225 -25 98 -58 319 -58 395 0 92 -17 99 -19 8 -1 -43 -3 -94 -4 -115 -1 -20 1
-34 5 -32 5 3 8 12 8 21 0 9 3 14 6 10 4 -3 -2 -30 -11 -59 -10 -29 -19 -59
-21 -65 -2 -7 -8 -13 -13 -13 -6 0 -8 6 -5 14 3 8 -2 30 -11 50 -9 19 -14 40
-10 47 4 6 2 14 -4 18 -11 7 -15 58 -9 115 2 18 -3 32 -14 39 -20 13 -44 -5
-89 -66 -25 -34 -28 -36 -34 -17 -3 11 -13 20 -21 20 -16 0 -18 -14 -4 -40 7
-13 6 -21 -2 -26 -9 -6 -5 -10 12 -14 20 -5 26 -14 32 -52 7 -41 5 -51 -18
-85 -14 -21 -35 -41 -46 -46 -11 -4 -22 -15 -25 -25 -7 -29 -41 -46 -60 -30
-12 10 -17 9 -28 -5 -11 -16 -17 -12 -59 34 -50 54 -53 64 -32 76 8 4 15 17
18 28 3 16 10 19 41 17 26 -3 37 0 37 10 0 19 -21 38 -42 38 -10 0 -25 11 -33
24 -9 13 -29 29 -45 36 -16 7 -31 22 -34 36 -6 23 -36 35 -36 14 0 -13 -38 10
-44 27 -3 8 15 16 51 23 43 9 53 14 40 21 -10 6 -43 4 -91 -6 -41 -9 -87 -13
-101 -9 -19 5 -31 1 -46 -15 -23 -25 -39 -27 -39 -5 0 8 -5 12 -11 9 -6 -4 -8
-14 -5 -22 4 -11 1 -13 -14 -8 -11 4 -20 5 -20 3 0 -2 -7 -21 -14 -43 l-14
-39 -15 34 c-8 19 -33 73 -55 120 -22 47 -47 102 -55 123 -9 20 -23 37 -31 37
-8 0 -18 5 -22 12 -5 8 -2 9 9 5 19 -7 21 -4 8 21 -5 9 -14 28 -20 42 l-11 25
5 -27 c4 -22 2 -25 -15 -21 -11 3 -21 9 -21 14 -6 43 -24 61 -68 69 -23 4 -39
5 -37 2z m54 -28 c-9 -10 -24 -14 -33 -10 -23 9 -9 26 23 26 24 0 25 -1 10
-16z m40 -72 c15 -23 15 -23 -11 -11 -30 14 -46 42 -21 37 9 -2 23 -13 32 -26z
m60 -266 c8 -8 15 -41 17 -75 2 -33 6 -65 10 -71 3 -5 1 -10 -4 -10 -10 0 -15
14 -12 33 1 4 -6 15 -15 24 -12 13 -13 17 -2 24 11 7 10 9 -1 9 -14 0 -51 37
-51 51 0 4 -3 15 -7 25 -5 15 -2 16 23 10 16 -4 35 -13 42 -20z m372 -6 c0 -5
-4 -10 -10 -10 -5 0 -10 5 -10 10 0 6 5 10 10 10 6 0 10 -4 10 -10z m-414 -80
c38 -71 88 -130 125 -147 l37 -18 4 -83 c2 -45 0 -82 -4 -82 -3 0 -12 17 -18
38 -12 37 -35 72 -28 42 2 -8 0 -5 -6 7 -5 12 -19 24 -30 27 -11 3 -17 8 -13
12 8 8 -53 64 -69 64 -6 0 -17 7 -24 15 -7 9 -20 13 -28 10 -11 -4 -13 0 -8
17 3 13 11 51 17 86 12 67 16 68 45 12z m488 -86 c15 -75 16 -88 3 -102 -35
-40 -64 -120 -87 -237 -15 -74 -70 -235 -80 -235 -8 0 -70 161 -70 181 0 17
-41 93 -63 117 -17 18 -18 22 -5 17 10 -4 32 -2 50 5 30 10 41 28 123 191 101
205 101 205 129 63z m-110 78 c-11 -10 -18 -24 -16 -32 3 -8 1 -12 -3 -8 -4 4
-16 -3 -26 -15 -18 -21 -18 -21 -19 -2 0 55 10 66 75 73 6 1 1 -6 -11 -16z
m615 -128 c23 -122 26 -162 11 -184 -7 -11 -9 -3 -8 28 1 23 -2 45 -5 49 -7 6
-11 -20 -8 -46 2 -7 -3 -10 -9 -6 -6 4 -8 20 -4 41 8 43 -2 44 -15 2 -8 -28
-10 -21 -9 44 1 70 16 194 23 186 2 -2 12 -53 24 -114z m-2283 87 c0 -15 -4
-17 -12 -10 -14 12 -71 3 -127 -18 -32 -13 -42 -13 -70 -2 -17 8 -38 12 -44
11 -8 -2 -10 3 -7 12 5 13 22 14 97 10 51 -3 106 -1 122 5 42 13 41 13 41 -8z
m174 15 c0 -2 -7 -7 -16 -10 -8 -3 -12 -2 -9 4 6 10 25 14 25 6z m-40 -16 c0
-5 -8 -10 -17 -10 -15 0 -16 2 -3 10 19 12 20 12 20 0z m60 -20 c0 -5 -5 -10
-11 -10 -5 0 -7 5 -4 10 3 6 8 10 11 10 2 0 4 -4 4 -10z m-127 -80 c6 0 2 -7
-9 -15 -10 -8 -14 -15 -8 -15 7 0 15 -11 18 -25 4 -16 11 -22 21 -19 8 4 15 2
15 -4 0 -17 -29 -22 -55 -10 -13 6 -22 15 -18 21 3 6 1 7 -6 3 -7 -4 -19 -5
-28 -2 -13 5 -13 9 -2 23 12 15 11 16 -8 11 -13 -4 -23 -3 -23 1 0 12 64 40
78 35 8 -2 19 -4 25 -4z m60 -7 c-7 -2 -19 -2 -25 0 -7 3 -2 5 12 5 14 0 19
-2 13 -5z m1182 -4 c11 -17 -1 -21 -15 -4 -8 9 -8 15 -2 15 6 0 14 -5 17 -11z
m-1065 -9 c10 -7 -2 -8 -40 -4 -30 4 -57 8 -59 10 -10 9 86 3 99 -6z m1757
-131 c7 -7 17 -8 30 -1 24 13 53 -7 54 -39 1 -16 3 -18 6 -7 2 10 10 15 19 11
11 -4 12 -9 3 -19 -6 -8 -18 -14 -25 -14 -8 0 -14 -6 -14 -12 0 -9 -3 -8 -9 2
-6 8 -7 18 -5 22 3 5 2 7 -3 6 -4 -1 -28 12 -52 30 -24 17 -37 32 -30 32 8 0
20 -5 26 -11z m406 -14 c4 -8 2 -17 -3 -20 -6 -4 -10 3 -10 14 0 25 6 27 13 6z
m-1947 -40 c2 -26 -11 -31 -36 -15 -13 9 -12 12 4 25 27 20 31 19 32 -10z
m1851 -17 c-3 -7 -5 -2 -5 12 0 14 2 19 5 13 2 -7 2 -19 0 -25z m-1937 -8 c0
-5 -4 -10 -10 -10 -5 0 -10 5 -10 10 0 6 5 10 10 10 6 0 10 -4 10 -10z m1917
-22 c-3 -8 -6 -5 -6 6 -1 11 2 17 5 13 3 -3 4 -12 1 -19z m-1876 -18 c13 -10
18 -19 12 -20 -7 0 -13 4 -13 8 0 5 -10 14 -22 20 -13 6 -18 11 -12 11 7 1 22
-8 35 -19z m1539 5 c7 -8 19 -15 27 -15 10 0 13 -6 9 -16 -3 -9 -6 -24 -6 -33
0 -15 -10 -18 -52 -20 -29 -1 -54 -6 -56 -11 -3 -7 -39 2 -60 16 -2 1 -6 16
-8 33 -5 28 -2 33 28 46 44 19 102 19 118 0z m355 -27 c5 4 5 1 1 -6 -6 -10
-11 -10 -22 -1 -8 6 -14 14 -14 16 0 3 6 0 13 -6 8 -6 18 -7 22 -3z m-1949
-20 c4 -6 -2 -7 -17 -3 -35 10 -45 23 -15 18 15 -3 29 -10 32 -15z m1966 -20
c-7 -7 -12 -8 -12 -2 0 6 3 14 7 17 3 4 9 5 12 2 2 -3 -1 -11 -7 -17z m-2 -66
c0 -3 -7 3 -15 14 -8 10 -14 28 -14 39 0 14 4 10 14 -14 8 -18 15 -36 15 -39z
m-1755 16 c-3 -24 -11 -66 -17 -94 -12 -59 -6 -95 21 -121 22 -22 31 -46 38
-100 6 -49 -11 -59 -21 -12 -7 37 -21 31 -30 -12 -10 -52 -32 -18 -42 64 -10
88 -10 90 0 206 8 106 9 111 37 111 17 0 19 -5 14 -42z m1788 -30 c27 -124 31
-238 7 -238 -10 0 -30 129 -24 165 3 25 3 26 -5 10 -8 -16 -10 -13 -10 20 0
28 3 34 8 21 5 -13 10 -16 15 -8 4 6 2 20 -3 30 -6 11 -7 22 -3 26 3 4 0 11
-7 15 -11 7 -8 31 3 31 2 0 11 -33 19 -72z m-475 -17 c2 -23 -2 -41 -8 -41 -5
0 -10 21 -10 46 0 55 15 51 18 -5z m112 9 c11 -7 11 -10 2 -10 -7 0 -11 -4 -8
-8 9 -15 -28 -30 -52 -21 -29 11 -28 36 1 42 37 7 41 7 57 -3z m-163 -18 c14
-9 5 -26 -19 -35 -10 -3 -19 0 -22 10 -11 28 13 43 41 25z m590 -29 c-4 -3 -2
-12 4 -20 9 -10 8 -13 -5 -13 -9 0 -16 8 -16 20 0 11 5 20 12 20 6 0 8 -3 5
-7z m-1675 -63 c10 0 17 -4 13 -10 -11 -18 7 -60 26 -60 10 0 19 -4 19 -8 0
-5 -6 -9 -12 -9 -7 0 -23 -3 -34 -7 -15 -4 -23 -2 -28 9 -3 8 -1 15 4 15 21 0
9 18 -17 27 -30 11 -53 7 -53 -8 0 -6 6 -9 13 -8 26 3 37 -2 37 -16 0 -17 1
-16 -53 -20 -30 -2 -37 1 -33 12 3 7 0 13 -7 12 -25 -3 -38 1 -32 11 3 6 17
10 31 10 13 0 24 5 24 10 0 10 -8 12 -47 13 -13 0 -23 5 -23 12 0 7 10 12 23
12 38 1 47 3 46 11 -3 19 4 20 42 7 23 -8 50 -15 61 -15z m-129 13 c-7 -2 -19
-2 -25 0 -7 3 -2 5 12 5 14 0 19 -2 13 -5z m257 -28 c0 -8 6 -15 14 -15 17 0
38 24 29 33 -3 4 1 7 11 7 9 0 15 -4 12 -9 -3 -5 2 -15 11 -22 15 -12 16 -12
10 3 -5 13 1 17 26 20 58 5 117 -3 117 -17 0 -8 7 -15 15 -17 13 -2 12 -6 -5
-20 -17 -15 -20 -15 -20 -3 0 8 -7 15 -15 15 -14 0 -19 -11 -16 -37 1 -9 -12
-13 -39 -13 -33 0 -40 3 -40 19 0 25 -20 38 -31 20 -6 -9 -4 -15 6 -17 25 -6
16 -17 -15 -19 -17 -1 -30 1 -30 5 0 4 -22 5 -48 4 -47 -4 -49 -2 -65 31 -22
45 -21 50 3 44 11 -3 18 -1 15 3 -8 13 18 18 38 8 9 -5 17 -15 17 -23z m1073
-35 c-3 -11 -13 -20 -22 -21 -9 0 -28 -3 -43 -5 -19 -3 -30 1 -37 13 -8 17 -5
18 31 15 22 -3 45 1 51 7 17 17 26 13 20 -9z m477 0 c0 -5 -4 -10 -10 -10 -5
0 -10 5 -10 10 0 6 5 10 10 10 6 0 10 -4 10 -10z m-4 -75 c0 -30 -4 -55 -9
-55 -5 0 -6 7 -3 16 5 13 4 14 -7 6 -8 -7 -17 -9 -21 -5 -4 4 -11 1 -16 -7 -8
-12 -10 -10 -10 8 0 12 4 22 9 22 5 0 16 16 25 35 9 19 20 35 25 35 4 0 7 -25
7 -55z m-1701 4 c1 -8 -8 -19 -20 -26 -17 -11 -18 -12 -3 -13 23 0 36 -49 17
-61 -8 -5 -16 -3 -21 4 -4 6 -10 8 -14 4 -11 -11 -34 13 -34 35 0 10 -3 17 -7
15 -5 -3 -9 7 -9 21 -1 15 1 22 3 15 5 -13 31 -6 52 14 16 16 36 12 36 -8z
m36 -2 c-1 -4 -1 -15 -1 -24 0 -15 -2 -16 -10 -3 -13 20 -13 43 1 38 6 -2 10
-7 10 -11z m135 -22 c-3 -8 -16 -14 -28 -14 -16 1 -18 3 -6 6 9 2 20 14 24 26
4 13 9 17 12 9 2 -7 1 -19 -2 -27z m125 15 c10 0 20 -6 21 -12 0 -7 2 -17 2
-23 1 -5 4 -15 8 -20 4 -6 3 -17 -1 -24 -7 -10 -24 -11 -69 -6 -49 5 -61 11
-65 27 -4 13 -10 17 -19 12 -9 -5 -9 -2 2 10 10 13 16 14 18 6 3 -9 7 -9 13 1
7 11 9 9 9 -7 0 -12 7 -21 15 -21 8 0 15 6 15 14 0 7 8 13 17 13 13 0 14 3 6
11 -6 6 -9 19 -5 27 4 11 7 12 10 4 2 -7 12 -12 23 -12z m-204 -22 c-3 -8 -6
-5 -6 6 -1 11 2 17 5 13 3 -3 4 -12 1 -19z m-9 -21 c11 -8 11 -12 0 -18 -20
-13 -28 -11 -22 6 4 8 1 15 -5 15 -6 0 -11 5 -11 11 0 10 13 5 38 -14z m-43
-37 c3 -5 1 -10 -4 -10 -6 0 -11 5 -11 10 0 6 2 10 4 10 3 0 8 -4 11 -10z m62
-6 c-3 -3 -12 -4 -19 -1 -8 3 -5 6 6 6 11 1 17 -2 13 -5z m47 -10 c17 -17 22
-74 7 -74 -14 0 -20 13 -26 54 -7 40 -4 43 19 20z m1526 -38 c0 -25 -4 -48
-10 -51 -6 -4 -10 13 -10 44 0 28 5 51 10 51 6 0 10 -20 10 -44z m-1684 24 c7
0 15 -10 19 -22 6 -18 8 -20 12 -7 2 10 13 19 24 22 16 4 19 2 13 -15 -5 -18
-3 -20 20 -16 23 5 26 2 25 -21 0 -14 -3 -20 -6 -13 -8 21 -33 13 -33 -10 0
-19 -2 -20 -10 -8 -9 13 -11 13 -20 0 -7 -12 -10 -8 -10 15 0 17 -4 25 -8 19
-4 -6 -15 -13 -24 -17 -10 -3 -18 -13 -18 -22 0 -8 -4 -15 -10 -15 -5 0 -10
12 -10 26 0 14 -4 23 -9 20 -9 -6 -21 61 -12 70 3 3 15 3 26 0 11 -3 25 -6 31
-6z m114 -11 c0 -5 -7 -9 -15 -9 -8 0 -15 7 -15 15 0 9 6 12 15 9 8 -4 15 -10
15 -15z m174 0 c-7 -11 -34 -12 -34 -1 0 14 11 21 26 15 8 -3 11 -9 8 -14z
m-424 -4 c7 -9 8 -15 2 -15 -5 0 -12 7 -16 15 -3 8 -4 15 -2 15 2 0 9 -7 16
-15z m60 -6 c0 -14 -17 -10 -23 5 -4 10 -1 13 9 9 7 -3 14 -9 14 -14z m395 11
c3 -5 1 -10 -4 -10 -6 0 -11 5 -11 10 0 6 2 10 4 10 3 0 8 -4 11 -10z m-117
-45 c-3 -3 -9 2 -12 12 -6 14 -5 15 5 6 7 -7 10 -15 7 -18z m32 10 c0 -8 -4
-15 -10 -15 -5 0 -10 7 -10 15 0 8 5 15 10 15 6 0 10 -7 10 -15z m80 5 c13 -9
13 -11 0 -20 -8 -5 -21 -8 -28 -5 -8 3 -20 5 -28 5 -20 0 -17 18 4 23 28 8 36
7 52 -3z m32 -22 c-7 -7 -12 -8 -12 -2 0 6 3 14 7 17 3 4 9 5 12 2 2 -3 -1
-11 -7 -17z m577 -99 c29 -10 31 -14 31 -62 0 -85 6 -95 56 -103 41 -6 45 -9
56 -48 12 -40 14 -309 2 -328 -6 -9 -45 9 -56 26 -6 8 -10 7 -16 -2 -11 -17
-31 7 -65 79 -15 31 -75 119 -132 195 -140 184 -140 193 1 233 84 24 83 24
123 10z m-458 -68 c-7 -11 -17 -20 -23 -18 -6 1 -15 -9 -19 -23 -6 -17 -7 -11
-3 20 6 56 21 77 42 57 11 -12 11 -19 3 -36z m-814 12 c36 -5 42 -9 45 -35 l5
-30 -61 4 c-34 3 -80 11 -104 19 -42 12 -43 13 -20 25 l23 13 -25 2 c-23 1
-23 2 5 9 17 5 44 6 60 4 17 -3 49 -7 72 -11z m956 6 c13 -6 32 -26 40 -45 9
-19 21 -34 26 -34 5 0 12 -7 15 -16 3 -8 2 -12 -4 -9 -6 3 -7 -1 -4 -9 3 -9
12 -16 19 -16 8 0 17 -5 21 -12 4 -6 3 -8 -4 -4 -6 3 -13 2 -17 -4 -3 -6 2
-13 12 -17 27 -10 33 -24 28 -68 -4 -34 -3 -36 4 -10 6 25 9 27 15 13 5 -10
13 -15 18 -12 6 4 8 1 6 -7 -3 -8 -12 -13 -19 -11 -8 1 -1 -9 15 -24 24 -21
27 -28 15 -36 -10 -6 -3 -8 24 -6 37 4 38 3 49 -39 6 -25 15 -40 21 -36 6 4 8
-4 5 -21 -3 -14 -1 -26 3 -26 5 0 9 5 9 11 0 5 5 7 12 3 8 -5 4 -13 -10 -25
-14 -10 -18 -19 -10 -21 12 -4 -49 -130 -67 -135 -5 -2 -10 13 -11 32 0 19 -8
43 -17 53 -9 10 -14 21 -11 24 3 3 1 9 -5 13 -6 3 -11 1 -11 -4 0 -6 -4 -11
-9 -11 -5 0 -7 8 -5 18 3 9 -9 39 -26 66 -18 28 -28 52 -22 58 13 13 2 68 -14
68 -8 0 -14 10 -14 23 0 13 -9 33 -21 45 -11 12 -18 26 -14 31 3 5 -5 7 -17 3
-14 -3 -19 -1 -14 6 3 6 2 13 -4 17 -6 4 -8 11 -5 16 4 5 2 9 -4 9 -5 0 -11
-6 -14 -12 -4 -10 -7 -10 -18 0 -11 10 -10 12 5 12 13 0 16 5 12 16 -5 14 -4
15 9 4 21 -17 20 6 -1 27 -13 14 -17 14 -24 3 -5 -8 -7 -17 -4 -22 2 -4 -5
-12 -16 -18 -16 -9 -25 -8 -36 1 -25 21 -4 -21 27 -53 25 -26 47 -84 28 -72
-5 3 -9 -5 -9 -18 0 -13 -5 -40 -11 -62 -10 -36 -12 -37 -27 -22 -12 12 -13
19 -5 27 9 9 6 19 -10 41 l-22 30 -7 -29 c-6 -22 -7 -21 -3 10 2 20 0 37 -4
37 -5 0 -7 15 -5 34 2 28 -1 33 -13 29 -13 -5 -14 0 -8 28 15 76 49 146 74
157 35 14 56 14 84 1z m-954 -108 c41 -6 44 -8 46 -38 2 -30 0 -33 -24 -33
-14 0 -42 4 -61 9 -19 5 -51 12 -71 15 -32 6 -37 11 -41 37 l-5 31 56 -7 c31
-4 76 -10 100 -14z m1579 -66 c24 -20 36 -23 68 -19 21 4 47 7 56 7 9 1 14 5
12 9 -7 10 -3 10 37 -3 39 -13 104 -71 125 -111 13 -25 13 -27 -2 -21 -13 5
-16 2 -12 -13 3 -11 -1 -25 -9 -32 -9 -9 -10 -18 -3 -32 8 -15 7 -17 -10 -13
-10 3 -26 14 -36 24 -24 26 -46 25 -42 -3 3 -20 -1 -23 -29 -20 -36 2 -42 -8
-17 -29 8 -7 22 -25 30 -41 12 -23 12 -28 1 -28 -7 0 -22 7 -33 15 -10 8 -37
15 -59 16 l-40 2 38 4 c20 2 37 9 37 14 0 5 -6 9 -12 8 -7 -1 -29 -1 -49 0
-30 1 -39 7 -55 36 -23 43 -32 44 -47 5 -14 -38 -24 -38 -32 0 -4 16 -10 32
-15 35 -11 7 -1 174 12 198 13 24 52 21 86 -8z m-1608 -54 c58 -10 90 -20 82
-25 -15 -9 -191 21 -206 35 -14 13 14 10 124 -10z m-258 -54 c4 -22 0 -43 -36
-197 -8 -37 -15 -114 -15 -180 0 -63 -5 -142 -11 -175 -5 -33 -10 -82 -10
-110 0 -27 -5 -68 -12 -90 -6 -22 -11 -51 -10 -65 l2 -25 -10 23 c-5 13 -14
20 -20 17 -6 -4 -8 -11 -5 -16 3 -5 -1 -6 -9 -3 -9 3 -32 -4 -51 -16 -24 -15
-40 -19 -46 -13 -20 20 -35 110 -33 198 2 82 7 104 53 225 27 74 62 180 77
235 33 125 56 175 91 197 37 22 40 22 45 -5z m1095 -9 c-3 -8 -6 -5 -6 6 -1
11 2 17 5 13 3 -3 4 -12 1 -19z m-192 -18 c-7 -21 6 -53 21 -50 16 2 16 -36
-1 -50 -8 -7 -15 -19 -15 -26 0 -17 -22 -18 -38 -2 -9 9 -12 9 -12 -2 0 -16
-15 -4 -15 13 -1 7 -6 11 -13 10 -19 -4 -15 4 28 58 22 28 40 55 40 60 0 5 3
9 6 9 3 0 3 -9 -1 -20z m206 -27 c0 -5 2 -18 3 -31 2 -12 13 -36 25 -53 13
-17 19 -34 16 -37 -4 -4 -10 -1 -12 6 -3 6 -11 12 -19 12 -19 0 -18 -54 1 -70
8 -7 12 -16 9 -21 -3 -5 1 -9 9 -9 8 0 18 8 21 17 5 13 9 14 19 4 15 -15 -6
-31 -43 -31 -20 0 -29 7 -38 33 -13 38 -14 187 -1 187 5 0 9 -3 10 -7z m57
-70 c14 -12 14 -13 0 -13 -16 0 -29 21 -27 43 0 7 3 5 6 -3 3 -8 12 -21 21
-27z m52 27 c0 -5 -4 -10 -10 -10 -5 0 -10 5 -10 10 0 6 5 10 10 10 6 0 10 -4
10 -10z m-274 -103 c-5 -46 -11 -64 -22 -64 -8 0 -14 2 -14 3 0 7 22 110 26
123 10 32 16 -3 10 -62z m1378 51 c7 -21 15 -114 9 -99 -5 11 -7 11 -14 0 -5
-8 -6 9 -2 39 4 41 3 56 -8 63 -10 6 -11 9 -1 9 7 0 14 -6 16 -12z m-1514 -38
c-16 -31 -23 -19 -9 16 6 16 13 24 16 17 2 -7 -1 -22 -7 -33z m41 -23 c-5 -14
-15 -28 -21 -32 -8 -5 -9 -2 -1 11 5 11 12 28 16 38 3 10 8 17 11 14 2 -3 0
-17 -5 -31z m35 -33 c-4 -20 -10 -34 -12 -31 -3 3 -2 21 2 41 3 21 9 35 11 32
3 -3 2 -21 -1 -42z m269 36 c3 -5 -1 -10 -9 -10 -9 0 -16 5 -16 10 0 6 4 10 9
10 6 0 13 -4 16 -10z m425 -14 c0 -2 -7 -7 -16 -10 -8 -3 -12 -2 -9 4 6 10 25
14 25 6z m64 -38 c16 -22 12 -42 -7 -35 -6 2 -18 -3 -26 -10 -9 -8 -29 -24
-44 -36 -15 -12 -30 -29 -32 -37 -9 -42 -19 -60 -31 -60 -19 0 -18 28 2 47 11
11 12 19 4 27 -8 8 -13 7 -20 -4 -13 -21 -12 -6 2 25 13 30 28 33 28 5 0 -31
20 -24 21 8 1 15 1 33 0 40 -1 6 3 12 8 12 5 0 13 9 16 20 9 28 59 27 79 -2z
m716 -28 c0 -16 -4 -30 -8 -30 -4 0 -7 12 -6 28 3 32 3 32 9 32 3 0 5 -13 5
-30z m-1242 3 c-10 -2 -26 -2 -35 0 -10 3 -2 5 17 5 19 0 27 -2 18 -5z m255
-76 c32 -69 36 -87 28 -113 -7 -26 -29 -68 -48 -94 -2 -2 -15 9 -28 25 -23 26
-25 34 -20 104 3 42 7 85 9 96 3 11 5 30 5 43 2 39 15 24 54 -61z m-379 11
c14 -56 7 -85 -29 -112 -26 -20 -35 -23 -35 -12 0 19 27 123 35 136 10 17 22
11 29 -12z m581 -44 c12 -12 13 -19 4 -30 -13 -16 -49 -19 -49 -3 0 6 9 8 21
4 20 -7 20 -6 4 19 -19 29 -6 35 20 10z m-67 -110 c-11 -19 -24 -34 -29 -34
-5 0 -9 -6 -9 -14 0 -26 -41 -66 -68 -67 -19 0 -22 -2 -11 -7 14 -6 14 -9 4
-19 -10 -9 -14 -8 -17 5 -6 23 17 80 25 61 4 -11 6 -10 6 2 1 9 8 19 16 23 8
3 12 12 9 21 -3 8 -1 15 5 15 7 0 16 13 22 28 8 24 14 28 38 24 l29 -4 -20
-34z m-478 -104 c0 -87 -1 -90 -27 -107 -16 -10 -30 -21 -33 -25 -5 -6 -96
-48 -105 -48 -2 0 -7 16 -11 35 -5 29 0 45 27 91 34 56 119 144 139 144 6 0
10 -34 10 -90z m-416 -69 c-3 -39 -11 -71 -15 -71 -12 0 -11 25 2 94 16 76 22
65 13 -23z m746 23 c0 -8 -4 -12 -10 -9 -5 3 -10 10 -10 16 0 5 5 9 10 9 6 0
10 -7 10 -16z m-820 -19 c0 -14 -8 -29 -21 -35 -29 -16 -35 -6 -10 19 12 12
21 26 21 31 0 6 2 10 5 10 3 0 5 -11 5 -25z m790 -35 c-20 -13 -33 -13 -25 0
3 6 14 10 23 10 15 0 15 -2 2 -10z m-280 -38 c0 -21 -7 -32 -25 -40 -33 -15
-38 -15 -29 1 4 6 -2 4 -13 -5 -19 -18 -93 -26 -93 -10 0 6 133 77 153 81 4 0
7 -12 7 -27z m215 -52 c3 -5 1 -10 -4 -10 -6 0 -11 5 -11 10 0 6 2 10 4 10 3
0 8 -4 11 -10z m1153 -46 c12 -8 35 -22 50 -30 42 -22 1 -17 -51 6 -26 11 -49
25 -52 30 -10 16 28 12 53 -6z m-1958 -24 c-8 -5 -19 -10 -25 -10 -5 0 -3 5 5
10 8 5 20 10 25 10 6 0 3 -5 -5 -10z m740 -70 c-24 -15 -37 -11 -16 5 11 8 22
12 25 9 3 -3 -1 -9 -9 -14z m1225 10 c-3 -5 -11 -10 -16 -10 -6 0 -7 5 -4 10
3 6 11 10 16 10 6 0 7 -4 4 -10z m-880 -61 c-58 -12 -104 -11 -85 1 8 5 40 9
70 9 l55 -1 -40 -9z m663 -73 c-2 -15 -10 -21 -28 -21 -30 0 -38 26 -14 49 20
21 47 4 42 -28z m-1012 -152 c-33 -8 -61 -12 -64 -10 -12 13 12 21 65 23 l58
2 -59 -15z"/>
<path d="M2740 2872 c0 -11 49 -26 58 -17 8 7 0 12 -31 20 -16 4 -27 3 -27 -3z"/>
<path d="M2895 2870 c-3 -5 -1 -10 4 -10 6 0 11 5 11 10 0 6 -2 10 -4 10 -3 0
-8 -4 -11 -10z"/>
<path d="M3090 2854 c0 -9 -9 -18 -20 -21 -28 -7 -25 -18 5 -19 18 -2 25 3 25
17 0 14 7 19 25 19 14 0 25 5 25 10 0 6 -13 10 -30 10 -21 0 -30 -5 -30 -16z"/>
<path d="M2870 2837 c0 -17 37 -30 46 -15 7 11 5 14 -23 22 -17 5 -23 3 -23
-7z"/>
<path d="M2930 2831 c0 -6 3 -11 8 -12 4 0 15 -2 25 -4 10 -2 17 2 14 8 -5 15
-47 22 -47 8z"/>
<path d="M4447 2753 c-4 -3 -7 -13 -7 -22 1 -13 3 -13 11 2 11 19 8 33 -4 20z"/>
<path d="M3058 2702 c-4 -12 -2 -25 4 -28 16 -10 22 4 11 28 l-10 22 -5 -22z"/>
<path d="M3260 2191 c0 -5 6 -14 14 -20 12 -10 13 -8 9 8 -5 21 -23 30 -23 12z"/>
<path d="M3355 4001 c-3 -5 -1 -12 5 -16 5 -3 10 1 10 9 0 18 -6 21 -15 7z"/>
<path d="M3808 3748 c-16 -5 -28 -14 -28 -19 0 -6 -4 -7 -10 -4 -5 3 -10 1
-10 -4 0 -6 -9 -11 -20 -11 -11 0 -20 -3 -20 -7 0 -5 20 -8 45 -8 29 0 45 4
45 12 0 6 16 17 35 24 19 7 35 17 35 21 0 11 -39 9 -72 -4z"/>
<path d="M2687 3680 c9 -71 5 -214 -8 -262 -5 -21 -19 -43 -30 -49 -12 -6 -18
-17 -15 -25 3 -9 1 -24 -4 -34 -8 -15 -5 -24 16 -45 21 -21 29 -24 35 -13 14
21 69 168 69 183 0 8 10 17 21 20 16 5 18 9 9 15 -20 12 -4 55 25 68 24 11 36
51 15 53 -5 1 -16 2 -22 3 -7 1 -12 7 -10 14 1 7 -5 15 -13 18 -8 4 -15 14
-15 23 -1 12 -5 11 -20 -8 -18 -21 -20 -21 -22 -5 -2 34 -4 39 -22 69 l-17 30
8 -55z"/>
<path d="M3656 3677 c3 -10 9 -15 12 -12 3 3 0 11 -7 18 -10 9 -11 8 -5 -6z"/>
<path d="M2880 3240 c0 -5 7 -10 15 -10 8 0 15 5 15 10 0 6 -7 10 -15 10 -8 0
-15 -4 -15 -10z"/>
<path d="M1921 3134 c0 -11 3 -14 6 -6 3 7 2 16 -1 19 -3 4 -6 -2 -5 -13z"/>
<path d="M3841 2628 c7 -13 23 -34 35 -47 35 -35 31 -2 -4 37 -33 37 -48 42
-31 10z"/>
<path d="M4070 2589 c0 -7 14 -34 30 -61 20 -33 29 -56 24 -70 -5 -18 -4 -19
16 -8 16 9 19 14 10 20 -7 5 -10 17 -5 31 4 17 3 20 -3 10 -8 -11 -13 -8 -26
16 -8 17 -12 33 -9 36 7 8 -16 37 -28 37 -5 0 -9 -5 -9 -11z"/>
<path d="M4460 2411 c0 -7 -5 -9 -12 -5 -7 5 -8 3 -3 -5 5 -9 10 -10 18 -2 6
6 8 14 4 18 -4 3 -7 1 -7 -6z"/>
<path d="M1850 2380 c0 -13 7 -20 20 -20 13 0 20 7 20 20 0 13 -7 20 -20 20
-13 0 -20 -7 -20 -20z"/>
<path d="M1730 1435 c0 -14 4 -25 9 -25 4 0 6 11 3 25 -2 14 -6 25 -8 25 -2 0
-4 -11 -4 -25z"/>
<path d="M13 1403 c9 -2 25 -2 35 0 9 3 1 5 -18 5 -19 0 -27 -2 -17 -5z"/>
<path d="M118 1403 c12 -2 30 -2 40 0 9 3 -1 5 -23 4 -22 0 -30 -2 -17 -4z"/>
<path d="M458 1403 c34 -2 90 -2 125 0 34 2 6 3 -63 3 -69 0 -97 -1 -62 -3z"/>
<path d="M738 1403 c12 -2 32 -2 45 0 12 2 2 4 -23 4 -25 0 -35 -2 -22 -4z"/>
<path d="M898 1403 c12 -2 30 -2 40 0 9 3 -1 5 -23 4 -22 0 -30 -2 -17 -4z"/>
<path d="M2481 1284 c0 -11 3 -14 6 -6 3 7 2 16 -1 19 -3 4 -6 -2 -5 -13z"/>
<path d="M1915 1175 c11 -33 11 -37 -2 -42 -7 -3 -13 2 -13 10 0 8 -6 17 -14
20 -10 4 -12 0 -9 -14 3 -10 0 -19 -6 -19 -6 0 -11 6 -11 14 0 7 -6 19 -14 25
-11 9 -12 6 -8 -15 3 -15 1 -25 -4 -22 -49 22 -70 34 -76 43 -5 6 -8 6 -8 -2
0 -39 67 -59 167 -50 76 7 83 11 76 37 -7 25 -42 37 -54 19 -8 -12 -11 -11
-20 1 -9 12 -10 11 -4 -5z m55 -15 c0 -5 -7 -10 -15 -10 -8 0 -15 5 -15 10 0
6 7 10 15 10 8 0 15 -4 15 -10z"/>
<path d="M2471 1114 c0 -11 3 -14 6 -6 3 7 2 16 -1 19 -3 4 -6 -2 -5 -13z"/>
<path d="M2434 959 c-11 -49 -18 -89 -14 -89 8 0 45 168 39 174 -2 3 -13 -36
-25 -85z"/>
<path d="M3945 1010 c-3 -5 -2 -10 4 -10 5 0 13 5 16 10 3 6 2 10 -4 10 -5 0
-13 -4 -16 -10z"/>
<path d="M2922 980 c-8 -13 -8 -20 -2 -20 6 0 13 7 17 15 9 24 -1 27 -15 5z"/>
<path d="M3540 870 c-12 -8 -9 -10 13 -10 16 0 26 4 22 10 -8 12 -16 12 -35 0z"/>
<path d="M3458 863 c12 -2 32 -2 45 0 12 2 2 4 -23 4 -25 0 -35 -2 -22 -4z"/>
<path d="M3613 863 c9 -2 25 -2 35 0 9 3 1 5 -18 5 -19 0 -27 -2 -17 -5z"/>
<path d="M5618 783 c7 -3 16 -2 19 1 4 3 -2 6 -13 5 -11 0 -14 -3 -6 -6z"/>
<path d="M10 762 c-6 -2 -10 -139 -10 -383 l0 -379 3200 0 3200 0 0 370 0 370
-263 0 c-145 0 -267 3 -271 7 -4 4 -21 8 -39 9 -17 1 -56 5 -86 8 -31 4 -77 2
-104 -3 -30 -5 -50 -5 -53 1 -4 6 -9 6 -14 -2 -5 -8 -122 -11 -461 -10 -250 0
-479 0 -509 -1 -161 -3 -647 -2 -1865 6 -1442 9 -2709 12 -2725 7z"/>
<path d="M5528 763 c7 -3 16 -2 19 1 4 3 -2 6 -13 5 -11 0 -14 -3 -6 -6z"/>
</g>
</svg>
